<mxfile host="app.diagrams.net" modified="2023-04-28T05:39:14.642Z" agent="Mozilla/5.0 (Windows NT 10.0; Win64; x64) AppleWebKit/537.36 (KHTML, like Gecko) Chrome/112.0.0.0 Safari/537.36" etag="gNeZRjUfrPplFz2ULEG1" version="21.2.3" type="device" pages="2">
  <diagram name="Page-1" id="xR4eLRwy2_KFMM4vsUup">
    <mxGraphModel dx="1461" dy="747" grid="1" gridSize="10" guides="1" tooltips="1" connect="1" arrows="1" fold="1" page="1" pageScale="1" pageWidth="827" pageHeight="1169" math="0" shadow="0">
      <root>
        <mxCell id="0" />
        <mxCell id="1" parent="0" />
        <mxCell id="yFWWKNzB3BTX4aUAvwC2-85" style="edgeStyle=orthogonalEdgeStyle;rounded=0;orthogonalLoop=1;jettySize=auto;html=1;entryX=0.5;entryY=0;entryDx=0;entryDy=0;" parent="1" source="yFWWKNzB3BTX4aUAvwC2-2" target="yFWWKNzB3BTX4aUAvwC2-60" edge="1">
          <mxGeometry relative="1" as="geometry" />
        </mxCell>
        <mxCell id="yFWWKNzB3BTX4aUAvwC2-2" value="1. Start" style="ellipse;whiteSpace=wrap;html=1;" parent="1" vertex="1">
          <mxGeometry x="550" y="140" width="70" height="30" as="geometry" />
        </mxCell>
        <mxCell id="yFWWKNzB3BTX4aUAvwC2-62" style="edgeStyle=orthogonalEdgeStyle;rounded=0;orthogonalLoop=1;jettySize=auto;html=1;entryX=0.494;entryY=-0.085;entryDx=0;entryDy=0;entryPerimeter=0;" parent="1" source="yFWWKNzB3BTX4aUAvwC2-60" target="yFWWKNzB3BTX4aUAvwC2-81" edge="1">
          <mxGeometry relative="1" as="geometry">
            <mxPoint x="792.2222493489584" y="370" as="targetPoint" />
          </mxGeometry>
        </mxCell>
        <mxCell id="yFWWKNzB3BTX4aUAvwC2-64" style="edgeStyle=orthogonalEdgeStyle;rounded=0;orthogonalLoop=1;jettySize=auto;html=1;" parent="1" source="yFWWKNzB3BTX4aUAvwC2-60" edge="1">
          <mxGeometry relative="1" as="geometry">
            <mxPoint x="510" y="320" as="targetPoint" />
          </mxGeometry>
        </mxCell>
        <mxCell id="yFWWKNzB3BTX4aUAvwC2-60" value="2. ID empty or null" style="rhombus;whiteSpace=wrap;html=1;" parent="1" vertex="1">
          <mxGeometry x="540" y="200" width="95" height="90" as="geometry" />
        </mxCell>
        <mxCell id="yFWWKNzB3BTX4aUAvwC2-63" value="yes" style="text;html=1;align=center;verticalAlign=middle;resizable=0;points=[];autosize=1;strokeColor=none;fillColor=none;" parent="1" vertex="1">
          <mxGeometry x="630" y="225" width="40" height="30" as="geometry" />
        </mxCell>
        <mxCell id="yFWWKNzB3BTX4aUAvwC2-66" style="edgeStyle=orthogonalEdgeStyle;rounded=0;orthogonalLoop=1;jettySize=auto;html=1;entryX=0.202;entryY=-0.056;entryDx=0;entryDy=0;entryPerimeter=0;" parent="1" source="yFWWKNzB3BTX4aUAvwC2-65" target="yFWWKNzB3BTX4aUAvwC2-81" edge="1">
          <mxGeometry relative="1" as="geometry">
            <mxPoint x="740" y="360" as="targetPoint" />
          </mxGeometry>
        </mxCell>
        <mxCell id="yFWWKNzB3BTX4aUAvwC2-67" style="edgeStyle=orthogonalEdgeStyle;rounded=0;orthogonalLoop=1;jettySize=auto;html=1;" parent="1" source="yFWWKNzB3BTX4aUAvwC2-65" edge="1">
          <mxGeometry relative="1" as="geometry">
            <mxPoint x="450" y="460" as="targetPoint" />
          </mxGeometry>
        </mxCell>
        <mxCell id="yFWWKNzB3BTX4aUAvwC2-69" value="no" style="edgeLabel;html=1;align=center;verticalAlign=middle;resizable=0;points=[];" parent="yFWWKNzB3BTX4aUAvwC2-67" vertex="1" connectable="0">
          <mxGeometry x="-0.6667" y="-8" relative="1" as="geometry">
            <mxPoint x="2" y="-5" as="offset" />
          </mxGeometry>
        </mxCell>
        <mxCell id="yFWWKNzB3BTX4aUAvwC2-65" value="3. description empty" style="rhombus;whiteSpace=wrap;html=1;" parent="1" vertex="1">
          <mxGeometry x="470" y="320" width="80" height="80" as="geometry" />
        </mxCell>
        <mxCell id="yFWWKNzB3BTX4aUAvwC2-68" value="no" style="text;html=1;align=center;verticalAlign=middle;resizable=0;points=[];autosize=1;strokeColor=none;fillColor=none;" parent="1" vertex="1">
          <mxGeometry x="510" y="215" width="40" height="30" as="geometry" />
        </mxCell>
        <mxCell id="yFWWKNzB3BTX4aUAvwC2-74" style="edgeStyle=orthogonalEdgeStyle;rounded=0;orthogonalLoop=1;jettySize=auto;html=1;entryX=0;entryY=0.5;entryDx=0;entryDy=0;" parent="1" source="yFWWKNzB3BTX4aUAvwC2-70" target="yFWWKNzB3BTX4aUAvwC2-81" edge="1">
          <mxGeometry relative="1" as="geometry">
            <mxPoint x="760" y="515" as="targetPoint" />
          </mxGeometry>
        </mxCell>
        <mxCell id="yFWWKNzB3BTX4aUAvwC2-76" style="edgeStyle=orthogonalEdgeStyle;rounded=0;orthogonalLoop=1;jettySize=auto;html=1;" parent="1" source="yFWWKNzB3BTX4aUAvwC2-70" edge="1">
          <mxGeometry relative="1" as="geometry">
            <mxPoint x="350" y="580" as="targetPoint" />
          </mxGeometry>
        </mxCell>
        <mxCell id="yFWWKNzB3BTX4aUAvwC2-70" value="4. deadline not in (1, 14)" style="rhombus;whiteSpace=wrap;html=1;" parent="1" vertex="1">
          <mxGeometry x="380" y="460" width="140" height="110" as="geometry" />
        </mxCell>
        <mxCell id="yFWWKNzB3BTX4aUAvwC2-73" value="yes" style="text;html=1;align=center;verticalAlign=middle;resizable=0;points=[];autosize=1;strokeColor=none;fillColor=none;" parent="1" vertex="1">
          <mxGeometry x="540" y="325" width="40" height="30" as="geometry" />
        </mxCell>
        <mxCell id="yFWWKNzB3BTX4aUAvwC2-75" value="yes" style="text;html=1;align=center;verticalAlign=middle;resizable=0;points=[];autosize=1;strokeColor=none;fillColor=none;" parent="1" vertex="1">
          <mxGeometry x="510" y="485" width="40" height="30" as="geometry" />
        </mxCell>
        <mxCell id="yFWWKNzB3BTX4aUAvwC2-77" value="no" style="text;html=1;align=center;verticalAlign=middle;resizable=0;points=[];autosize=1;strokeColor=none;fillColor=none;" parent="1" vertex="1">
          <mxGeometry x="340" y="495" width="40" height="30" as="geometry" />
        </mxCell>
        <mxCell id="yFWWKNzB3BTX4aUAvwC2-79" style="edgeStyle=orthogonalEdgeStyle;rounded=0;orthogonalLoop=1;jettySize=auto;html=1;entryX=0.5;entryY=1;entryDx=0;entryDy=0;" parent="1" source="yFWWKNzB3BTX4aUAvwC2-78" target="yFWWKNzB3BTX4aUAvwC2-81" edge="1">
          <mxGeometry relative="1" as="geometry">
            <mxPoint x="750" y="625" as="targetPoint" />
          </mxGeometry>
        </mxCell>
        <mxCell id="yFWWKNzB3BTX4aUAvwC2-82" style="edgeStyle=orthogonalEdgeStyle;rounded=0;orthogonalLoop=1;jettySize=auto;html=1;" parent="1" source="yFWWKNzB3BTX4aUAvwC2-78" edge="1">
          <mxGeometry relative="1" as="geometry">
            <mxPoint x="260" y="700" as="targetPoint" />
          </mxGeometry>
        </mxCell>
        <mxCell id="yFWWKNzB3BTX4aUAvwC2-78" value="5. delivery not in (1, 14)" style="rhombus;whiteSpace=wrap;html=1;" parent="1" vertex="1">
          <mxGeometry x="280" y="580" width="140" height="90" as="geometry" />
        </mxCell>
        <mxCell id="yFWWKNzB3BTX4aUAvwC2-80" value="yes" style="text;html=1;align=center;verticalAlign=middle;resizable=0;points=[];autosize=1;strokeColor=none;fillColor=none;" parent="1" vertex="1">
          <mxGeometry x="480" y="575" width="40" height="30" as="geometry" />
        </mxCell>
        <mxCell id="yFWWKNzB3BTX4aUAvwC2-81" value="7. STOP_ERR" style="whiteSpace=wrap;html=1;" parent="1" vertex="1">
          <mxGeometry x="740" y="480" width="120" height="60" as="geometry" />
        </mxCell>
        <mxCell id="yFWWKNzB3BTX4aUAvwC2-84" value="6. repo.save" style="whiteSpace=wrap;html=1;" parent="1" vertex="1">
          <mxGeometry x="200" y="700" width="120" height="60" as="geometry" />
        </mxCell>
      </root>
    </mxGraphModel>
  </diagram>
  <diagram name="Copy of Page-1" id="8smtaagawIUDYESib9tZ">
    <mxGraphModel dx="1461" dy="747" grid="1" gridSize="10" guides="1" tooltips="1" connect="1" arrows="1" fold="1" page="1" pageScale="1" pageWidth="827" pageHeight="1169" math="0" shadow="0">
      <root>
        <mxCell id="beIsVMxYgjdPsUP8LJ0z-0" />
        <mxCell id="beIsVMxYgjdPsUP8LJ0z-1" parent="beIsVMxYgjdPsUP8LJ0z-0" />
        <mxCell id="beIsVMxYgjdPsUP8LJ0z-2" style="edgeStyle=orthogonalEdgeStyle;rounded=0;orthogonalLoop=1;jettySize=auto;html=1;entryX=0.5;entryY=0;entryDx=0;entryDy=0;" edge="1" parent="beIsVMxYgjdPsUP8LJ0z-1" source="beIsVMxYgjdPsUP8LJ0z-3" target="beIsVMxYgjdPsUP8LJ0z-6">
          <mxGeometry relative="1" as="geometry" />
        </mxCell>
        <mxCell id="beIsVMxYgjdPsUP8LJ0z-3" value="0. Start" style="ellipse;whiteSpace=wrap;html=1;" vertex="1" parent="beIsVMxYgjdPsUP8LJ0z-1">
          <mxGeometry x="550" y="140" width="70" height="30" as="geometry" />
        </mxCell>
        <mxCell id="beIsVMxYgjdPsUP8LJ0z-4" style="edgeStyle=orthogonalEdgeStyle;rounded=0;orthogonalLoop=1;jettySize=auto;html=1;entryX=0.494;entryY=-0.085;entryDx=0;entryDy=0;entryPerimeter=0;" edge="1" parent="beIsVMxYgjdPsUP8LJ0z-1" source="beIsVMxYgjdPsUP8LJ0z-6" target="beIsVMxYgjdPsUP8LJ0z-23">
          <mxGeometry relative="1" as="geometry">
            <mxPoint x="792.2222493489584" y="370" as="targetPoint" />
          </mxGeometry>
        </mxCell>
        <mxCell id="beIsVMxYgjdPsUP8LJ0z-5" style="edgeStyle=orthogonalEdgeStyle;rounded=0;orthogonalLoop=1;jettySize=auto;html=1;" edge="1" parent="beIsVMxYgjdPsUP8LJ0z-1" source="beIsVMxYgjdPsUP8LJ0z-6">
          <mxGeometry relative="1" as="geometry">
            <mxPoint x="510" y="320" as="targetPoint" />
          </mxGeometry>
        </mxCell>
        <mxCell id="beIsVMxYgjdPsUP8LJ0z-6" value="1. ID empty or null" style="rhombus;whiteSpace=wrap;html=1;" vertex="1" parent="beIsVMxYgjdPsUP8LJ0z-1">
          <mxGeometry x="540" y="200" width="95" height="90" as="geometry" />
        </mxCell>
        <mxCell id="beIsVMxYgjdPsUP8LJ0z-7" value="yes" style="text;html=1;align=center;verticalAlign=middle;resizable=0;points=[];autosize=1;strokeColor=none;fillColor=none;" vertex="1" parent="beIsVMxYgjdPsUP8LJ0z-1">
          <mxGeometry x="630" y="225" width="40" height="30" as="geometry" />
        </mxCell>
        <mxCell id="beIsVMxYgjdPsUP8LJ0z-8" style="edgeStyle=orthogonalEdgeStyle;rounded=0;orthogonalLoop=1;jettySize=auto;html=1;entryX=0.202;entryY=-0.056;entryDx=0;entryDy=0;entryPerimeter=0;" edge="1" parent="beIsVMxYgjdPsUP8LJ0z-1" source="beIsVMxYgjdPsUP8LJ0z-11" target="beIsVMxYgjdPsUP8LJ0z-23">
          <mxGeometry relative="1" as="geometry">
            <mxPoint x="740" y="590" as="targetPoint" />
          </mxGeometry>
        </mxCell>
        <mxCell id="beIsVMxYgjdPsUP8LJ0z-9" style="edgeStyle=orthogonalEdgeStyle;rounded=0;orthogonalLoop=1;jettySize=auto;html=1;" edge="1" parent="beIsVMxYgjdPsUP8LJ0z-1" source="beIsVMxYgjdPsUP8LJ0z-11">
          <mxGeometry relative="1" as="geometry">
            <mxPoint x="330" y="640" as="targetPoint" />
          </mxGeometry>
        </mxCell>
        <mxCell id="beIsVMxYgjdPsUP8LJ0z-10" value="no" style="edgeLabel;html=1;align=center;verticalAlign=middle;resizable=0;points=[];" vertex="1" connectable="0" parent="beIsVMxYgjdPsUP8LJ0z-9">
          <mxGeometry x="-0.6667" y="-8" relative="1" as="geometry">
            <mxPoint x="2" y="-5" as="offset" />
          </mxGeometry>
        </mxCell>
        <mxCell id="beIsVMxYgjdPsUP8LJ0z-11" value="3. id null or empty" style="rhombus;whiteSpace=wrap;html=1;" vertex="1" parent="beIsVMxYgjdPsUP8LJ0z-1">
          <mxGeometry x="350" y="500" width="80" height="80" as="geometry" />
        </mxCell>
        <mxCell id="beIsVMxYgjdPsUP8LJ0z-12" value="no" style="text;html=1;align=center;verticalAlign=middle;resizable=0;points=[];autosize=1;strokeColor=none;fillColor=none;" vertex="1" parent="beIsVMxYgjdPsUP8LJ0z-1">
          <mxGeometry x="510" y="215" width="40" height="30" as="geometry" />
        </mxCell>
        <mxCell id="beIsVMxYgjdPsUP8LJ0z-13" style="edgeStyle=orthogonalEdgeStyle;rounded=0;orthogonalLoop=1;jettySize=auto;html=1;entryX=0;entryY=0.5;entryDx=0;entryDy=0;" edge="1" parent="beIsVMxYgjdPsUP8LJ0z-1" source="beIsVMxYgjdPsUP8LJ0z-15" target="beIsVMxYgjdPsUP8LJ0z-23">
          <mxGeometry relative="1" as="geometry">
            <mxPoint x="760" y="745" as="targetPoint" />
          </mxGeometry>
        </mxCell>
        <mxCell id="beIsVMxYgjdPsUP8LJ0z-14" style="edgeStyle=orthogonalEdgeStyle;rounded=0;orthogonalLoop=1;jettySize=auto;html=1;" edge="1" parent="beIsVMxYgjdPsUP8LJ0z-1" source="beIsVMxYgjdPsUP8LJ0z-15">
          <mxGeometry relative="1" as="geometry">
            <mxPoint x="150" y="880" as="targetPoint" />
          </mxGeometry>
        </mxCell>
        <mxCell id="beIsVMxYgjdPsUP8LJ0z-15" value="5. deadline not in (1, 14)" style="rhombus;whiteSpace=wrap;html=1;" vertex="1" parent="beIsVMxYgjdPsUP8LJ0z-1">
          <mxGeometry x="180" y="760" width="140" height="110" as="geometry" />
        </mxCell>
        <mxCell id="beIsVMxYgjdPsUP8LJ0z-16" value="yes" style="text;html=1;align=center;verticalAlign=middle;resizable=0;points=[];autosize=1;strokeColor=none;fillColor=none;" vertex="1" parent="beIsVMxYgjdPsUP8LJ0z-1">
          <mxGeometry x="420" y="505" width="40" height="30" as="geometry" />
        </mxCell>
        <mxCell id="beIsVMxYgjdPsUP8LJ0z-17" value="yes" style="text;html=1;align=center;verticalAlign=middle;resizable=0;points=[];autosize=1;strokeColor=none;fillColor=none;" vertex="1" parent="beIsVMxYgjdPsUP8LJ0z-1">
          <mxGeometry x="310" y="785" width="40" height="30" as="geometry" />
        </mxCell>
        <mxCell id="beIsVMxYgjdPsUP8LJ0z-18" value="no" style="text;html=1;align=center;verticalAlign=middle;resizable=0;points=[];autosize=1;strokeColor=none;fillColor=none;" vertex="1" parent="beIsVMxYgjdPsUP8LJ0z-1">
          <mxGeometry x="140" y="795" width="40" height="30" as="geometry" />
        </mxCell>
        <mxCell id="beIsVMxYgjdPsUP8LJ0z-19" style="edgeStyle=orthogonalEdgeStyle;rounded=0;orthogonalLoop=1;jettySize=auto;html=1;entryX=0.5;entryY=1;entryDx=0;entryDy=0;" edge="1" parent="beIsVMxYgjdPsUP8LJ0z-1" source="beIsVMxYgjdPsUP8LJ0z-21" target="beIsVMxYgjdPsUP8LJ0z-23">
          <mxGeometry relative="1" as="geometry">
            <mxPoint x="750" y="855" as="targetPoint" />
          </mxGeometry>
        </mxCell>
        <mxCell id="PGQdw7Dy4G5Jj7_3xqbi-12" style="edgeStyle=orthogonalEdgeStyle;rounded=0;orthogonalLoop=1;jettySize=auto;html=1;entryX=0.5;entryY=0;entryDx=0;entryDy=0;" edge="1" parent="beIsVMxYgjdPsUP8LJ0z-1" source="beIsVMxYgjdPsUP8LJ0z-21" target="PGQdw7Dy4G5Jj7_3xqbi-11">
          <mxGeometry relative="1" as="geometry">
            <mxPoint x="60" y="1000" as="targetPoint" />
            <Array as="points">
              <mxPoint x="50" y="925" />
              <mxPoint x="50" y="970" />
              <mxPoint x="110" y="970" />
            </Array>
          </mxGeometry>
        </mxCell>
        <mxCell id="beIsVMxYgjdPsUP8LJ0z-21" value="6. delivery not in (1, 14)" style="rhombus;whiteSpace=wrap;html=1;" vertex="1" parent="beIsVMxYgjdPsUP8LJ0z-1">
          <mxGeometry x="80" y="880" width="140" height="90" as="geometry" />
        </mxCell>
        <mxCell id="beIsVMxYgjdPsUP8LJ0z-22" value="yes" style="text;html=1;align=center;verticalAlign=middle;resizable=0;points=[];autosize=1;strokeColor=none;fillColor=none;" vertex="1" parent="beIsVMxYgjdPsUP8LJ0z-1">
          <mxGeometry x="280" y="875" width="40" height="30" as="geometry" />
        </mxCell>
        <mxCell id="beIsVMxYgjdPsUP8LJ0z-23" value="7. STOP_ERR" style="whiteSpace=wrap;html=1;" vertex="1" parent="beIsVMxYgjdPsUP8LJ0z-1">
          <mxGeometry x="740" y="710" width="120" height="60" as="geometry" />
        </mxCell>
        <mxCell id="beIsVMxYgjdPsUP8LJ0z-24" value="8. STOP_SUCCESS" style="whiteSpace=wrap;html=1;" vertex="1" parent="beIsVMxYgjdPsUP8LJ0z-1">
          <mxGeometry x="380" y="1020" width="120" height="60" as="geometry" />
        </mxCell>
        <mxCell id="PGQdw7Dy4G5Jj7_3xqbi-1" style="edgeStyle=orthogonalEdgeStyle;rounded=0;orthogonalLoop=1;jettySize=auto;html=1;entryX=0.364;entryY=-0.039;entryDx=0;entryDy=0;entryPerimeter=0;" edge="1" parent="beIsVMxYgjdPsUP8LJ0z-1" source="PGQdw7Dy4G5Jj7_3xqbi-0" target="beIsVMxYgjdPsUP8LJ0z-23">
          <mxGeometry relative="1" as="geometry" />
        </mxCell>
        <mxCell id="PGQdw7Dy4G5Jj7_3xqbi-3" style="edgeStyle=orthogonalEdgeStyle;rounded=0;orthogonalLoop=1;jettySize=auto;html=1;entryX=0.5;entryY=0;entryDx=0;entryDy=0;" edge="1" parent="beIsVMxYgjdPsUP8LJ0z-1" source="PGQdw7Dy4G5Jj7_3xqbi-0" target="beIsVMxYgjdPsUP8LJ0z-11">
          <mxGeometry relative="1" as="geometry" />
        </mxCell>
        <mxCell id="PGQdw7Dy4G5Jj7_3xqbi-0" value="2. Assig with ID exists" style="rhombus;whiteSpace=wrap;html=1;" vertex="1" parent="beIsVMxYgjdPsUP8LJ0z-1">
          <mxGeometry x="462.5" y="320" width="95" height="90" as="geometry" />
        </mxCell>
        <mxCell id="PGQdw7Dy4G5Jj7_3xqbi-2" value="yes" style="text;html=1;align=center;verticalAlign=middle;resizable=0;points=[];autosize=1;strokeColor=none;fillColor=none;" vertex="1" parent="beIsVMxYgjdPsUP8LJ0z-1">
          <mxGeometry x="550" y="338" width="40" height="30" as="geometry" />
        </mxCell>
        <mxCell id="PGQdw7Dy4G5Jj7_3xqbi-4" value="no" style="text;html=1;align=center;verticalAlign=middle;resizable=0;points=[];autosize=1;strokeColor=none;fillColor=none;" vertex="1" parent="beIsVMxYgjdPsUP8LJ0z-1">
          <mxGeometry x="390" y="328" width="40" height="30" as="geometry" />
        </mxCell>
        <mxCell id="PGQdw7Dy4G5Jj7_3xqbi-7" style="edgeStyle=orthogonalEdgeStyle;rounded=0;orthogonalLoop=1;jettySize=auto;html=1;entryX=0;entryY=0;entryDx=0;entryDy=0;" edge="1" parent="beIsVMxYgjdPsUP8LJ0z-1" source="PGQdw7Dy4G5Jj7_3xqbi-5" target="beIsVMxYgjdPsUP8LJ0z-23">
          <mxGeometry relative="1" as="geometry" />
        </mxCell>
        <mxCell id="PGQdw7Dy4G5Jj7_3xqbi-8" style="edgeStyle=orthogonalEdgeStyle;rounded=0;orthogonalLoop=1;jettySize=auto;html=1;entryX=0.5;entryY=0;entryDx=0;entryDy=0;" edge="1" parent="beIsVMxYgjdPsUP8LJ0z-1" source="PGQdw7Dy4G5Jj7_3xqbi-5" target="beIsVMxYgjdPsUP8LJ0z-15">
          <mxGeometry relative="1" as="geometry">
            <Array as="points">
              <mxPoint x="250" y="680" />
            </Array>
          </mxGeometry>
        </mxCell>
        <mxCell id="PGQdw7Dy4G5Jj7_3xqbi-5" value="4. description empty" style="rhombus;whiteSpace=wrap;html=1;" vertex="1" parent="beIsVMxYgjdPsUP8LJ0z-1">
          <mxGeometry x="290" y="640" width="80" height="80" as="geometry" />
        </mxCell>
        <mxCell id="PGQdw7Dy4G5Jj7_3xqbi-9" value="no" style="text;html=1;align=center;verticalAlign=middle;resizable=0;points=[];autosize=1;strokeColor=none;fillColor=none;" vertex="1" parent="beIsVMxYgjdPsUP8LJ0z-1">
          <mxGeometry x="240" y="648" width="40" height="30" as="geometry" />
        </mxCell>
        <mxCell id="PGQdw7Dy4G5Jj7_3xqbi-10" value="yes" style="text;html=1;align=center;verticalAlign=middle;resizable=0;points=[];autosize=1;strokeColor=none;fillColor=none;" vertex="1" parent="beIsVMxYgjdPsUP8LJ0z-1">
          <mxGeometry x="370" y="648" width="40" height="30" as="geometry" />
        </mxCell>
        <mxCell id="PGQdw7Dy4G5Jj7_3xqbi-14" style="edgeStyle=orthogonalEdgeStyle;rounded=0;orthogonalLoop=1;jettySize=auto;html=1;entryX=0;entryY=0.5;entryDx=0;entryDy=0;" edge="1" parent="beIsVMxYgjdPsUP8LJ0z-1" source="PGQdw7Dy4G5Jj7_3xqbi-11" target="beIsVMxYgjdPsUP8LJ0z-24">
          <mxGeometry relative="1" as="geometry" />
        </mxCell>
        <mxCell id="PGQdw7Dy4G5Jj7_3xqbi-16" style="edgeStyle=orthogonalEdgeStyle;rounded=0;orthogonalLoop=1;jettySize=auto;html=1;entryX=0.5;entryY=1;entryDx=0;entryDy=0;" edge="1" parent="beIsVMxYgjdPsUP8LJ0z-1" source="PGQdw7Dy4G5Jj7_3xqbi-11" target="beIsVMxYgjdPsUP8LJ0z-24">
          <mxGeometry relative="1" as="geometry">
            <mxPoint x="110" y="1150" as="targetPoint" />
            <Array as="points">
              <mxPoint x="110" y="1130" />
              <mxPoint x="440" y="1130" />
            </Array>
          </mxGeometry>
        </mxCell>
        <mxCell id="PGQdw7Dy4G5Jj7_3xqbi-11" value="7. assig exists already" style="rhombus;whiteSpace=wrap;html=1;" vertex="1" parent="beIsVMxYgjdPsUP8LJ0z-1">
          <mxGeometry x="40" y="1005" width="140" height="90" as="geometry" />
        </mxCell>
        <mxCell id="PGQdw7Dy4G5Jj7_3xqbi-13" value="no" style="text;html=1;align=center;verticalAlign=middle;resizable=0;points=[];autosize=1;strokeColor=none;fillColor=none;" vertex="1" parent="beIsVMxYgjdPsUP8LJ0z-1">
          <mxGeometry x="40" y="868" width="40" height="30" as="geometry" />
        </mxCell>
        <mxCell id="PGQdw7Dy4G5Jj7_3xqbi-15" value="no" style="text;html=1;align=center;verticalAlign=middle;resizable=0;points=[];autosize=1;strokeColor=none;fillColor=none;" vertex="1" parent="beIsVMxYgjdPsUP8LJ0z-1">
          <mxGeometry x="190" y="1008" width="40" height="30" as="geometry" />
        </mxCell>
        <mxCell id="PGQdw7Dy4G5Jj7_3xqbi-17" value="yes" style="text;html=1;align=center;verticalAlign=middle;resizable=0;points=[];autosize=1;strokeColor=none;fillColor=none;" vertex="1" parent="beIsVMxYgjdPsUP8LJ0z-1">
          <mxGeometry x="120" y="1098" width="40" height="30" as="geometry" />
        </mxCell>
        <mxCell id="PGQdw7Dy4G5Jj7_3xqbi-18" value="write to file" style="text;html=1;align=center;verticalAlign=middle;resizable=0;points=[];autosize=1;strokeColor=none;fillColor=none;" vertex="1" parent="beIsVMxYgjdPsUP8LJ0z-1">
          <mxGeometry x="240" y="1018" width="80" height="30" as="geometry" />
        </mxCell>
      </root>
    </mxGraphModel>
  </diagram>
</mxfile>
